<svg width="20" height="20" viewBox="0 0 20 20" fill="none" xmlns="http://www.w3.org/2000/svg">
<path d="M-9.15527e-05 1.43266C-9.15527e-05 0.641875 0.66194 0 1.47803 0H18.5218C19.3382 0 19.9999 0.641875 19.9999 1.43266V18.5676C19.9999 19.3586 19.3382 20 18.5218 20H1.47803C0.662018 20 -9.15527e-05 19.3587 -9.15527e-05 18.5678V1.43242V1.43266Z" fill="#272D37"/>
<path d="M6.0777 16.7376V7.73353H3.08488V16.7376H6.07801H6.0777ZM4.58192 6.50439C5.62535 6.50439 6.27496 5.81299 6.27496 4.94893C6.25543 4.06518 5.62535 3.39307 4.60176 3.39307C3.57746 3.39307 2.90848 4.06518 2.90848 4.94885C2.90848 5.81291 3.55785 6.50432 4.56231 6.50432H4.58168L4.58192 6.50439ZM7.73426 16.7376H10.7268V11.7099C10.7268 11.4411 10.7464 11.1717 10.8254 10.9797C11.0417 10.4418 11.5341 9.88502 12.3611 9.88502C13.4437 9.88502 13.8771 10.7106 13.8771 11.9212V16.7376H16.8696V11.5749C16.8696 8.80939 15.3933 7.52244 13.4243 7.52244C11.81 7.52244 11.1011 8.42471 10.7071 9.03924H10.7271V7.73385H7.73441C7.77348 8.57854 7.73418 16.7379 7.73418 16.7379L7.73426 16.7376Z" fill="white"/>
</svg>
