<svg width="20" height="21" viewBox="0 0 20 21" fill="none" xmlns="http://www.w3.org/2000/svg">
<path d="M6.2896 18.4586C13.8368 18.4586 17.9648 12.2058 17.9648 6.78336C17.9648 6.60576 17.9648 6.42896 17.9528 6.25296C18.7559 5.67209 19.4491 4.95286 20 4.12896C19.2512 4.46096 18.4567 4.67859 17.6432 4.77456C18.4998 4.2618 19.141 3.45521 19.4472 2.50496C18.6417 2.98297 17.7605 3.31982 16.8416 3.50096C16.2229 2.84311 15.4047 2.40749 14.5135 2.26153C13.6223 2.11557 12.7078 2.26739 11.9116 2.6935C11.1154 3.11962 10.4819 3.79627 10.109 4.61875C9.73605 5.44123 9.64462 6.36368 9.8488 7.24336C8.21741 7.16152 6.62146 6.73755 5.16455 5.99896C3.70763 5.26038 2.4223 4.22368 1.392 2.95616C0.867274 3.85949 0.70656 4.92885 0.942583 5.94651C1.17861 6.96417 1.79362 7.85362 2.6624 8.43376C2.00936 8.41463 1.37054 8.23846 0.8 7.92016V7.97216C0.800259 8.91954 1.12821 9.83766 1.72823 10.5708C2.32824 11.3039 3.16338 11.807 4.092 11.9946C3.4879 12.1593 2.85406 12.1834 2.2392 12.065C2.50151 12.8802 3.01202 13.5932 3.69937 14.1041C4.38671 14.615 5.21652 14.8984 6.0728 14.9146C5.22203 15.5833 4.24776 16.0777 3.20573 16.3696C2.16369 16.6614 1.07435 16.7449 0 16.6154C1.87653 17.8195 4.05994 18.4583 6.2896 18.4554" fill="#272D37"/>
</svg>
