<svg width="48" height="48" viewBox="0 0 48 48" fill="none" xmlns="http://www.w3.org/2000/svg">
<path d="M13.7899 20.6521C18.0731 20.6521 21.5455 24.149 21.5455 28.4625C21.5455 32.7751 18.0731 36.272 13.7899 36.272C9.50672 36.272 6.03436 32.7751 6.03436 28.4625L6 27.3465C6 18.7196 12.9447 11.7266 21.5111 11.7266V16.1897C18.5517 16.1897 15.7691 17.3499 13.677 19.4576C13.2736 19.8626 12.9063 20.2946 12.5749 20.7478C12.9709 20.6848 13.3767 20.6521 13.7899 20.6521ZM34.2445 20.6521C38.5276 20.6521 42 24.149 42 28.4625C42 32.7751 38.5276 36.272 34.2445 36.272C29.9613 36.272 26.4889 32.7751 26.4889 28.4625L26.4545 27.3465C26.4545 18.7196 33.3993 11.7266 41.9656 11.7266V16.1897C39.0063 16.1897 36.2236 17.3499 34.1315 19.4576C33.7282 19.8626 33.3608 20.2946 33.0295 20.7478C33.4255 20.6848 33.8313 20.6521 34.2445 20.6521Z" fill="#437EF7"/>
</svg>
