<svg width="25" height="24" viewBox="0 0 25 24" fill="none" xmlns="http://www.w3.org/2000/svg">
<path d="M24.2628 12.2763C24.2628 11.4605 24.1966 10.6404 24.0555 9.83789H12.7368V14.4589H19.2185C18.9495 15.9492 18.0853 17.2676 16.8198 18.1054V21.1037H20.6868C22.9576 19.0137 24.2628 15.9272 24.2628 12.2763Z" fill="white"/>
<path d="M12.7372 23.9994C15.9737 23.9994 18.7031 22.9367 20.6917 21.1024L16.8247 18.1041C15.7488 18.836 14.3599 19.2505 12.7416 19.2505C9.61102 19.2505 6.9566 17.1384 6.00418 14.2988H2.01373V17.3898C4.05085 21.4419 8.20003 23.9994 12.7372 23.9994Z" fill="white"/>
<path d="M5.99972 14.3007C5.49706 12.8103 5.49706 11.1965 5.99972 9.70618V6.61523H2.01368C0.311682 10.006 0.311682 14.0009 2.01368 17.3916L5.99972 14.3007Z" fill="white"/>
<path d="M12.7373 4.74966C14.4481 4.7232 16.1016 5.36697 17.3406 6.54867L20.7667 3.12262C18.5973 1.0855 15.718 -0.034466 12.7373 0.000808666C8.20009 0.000808666 4.05091 2.55822 2.01379 6.61481L5.99983 9.70575C6.94784 6.86173 9.60667 4.74966 12.7373 4.74966Z" fill="white"/>
</svg>
