<svg width="18" height="18" viewBox="0 0 18 18" fill="none" xmlns="http://www.w3.org/2000/svg">
<path d="M0.748047 5.03292V9.54317C0.748047 10.724 2.55019 10.7288 2.55019 9.54317V5.03292C2.55019 3.85213 0.748047 3.84729 0.748047 5.03292Z" fill="white"/>
<path d="M15.6191 5.03292V9.54317C15.6191 10.724 17.4213 10.7288 17.4213 9.54317V5.03292C17.4213 3.85213 15.6191 3.84729 15.6191 5.03292Z" fill="white"/>
<path d="M4.46729 1.42745V13.0272C4.46729 14.208 6.26942 14.2129 6.26942 13.0272V1.42745C6.26942 0.246657 4.46729 0.241818 4.46729 1.42745Z" fill="white"/>
<path d="M11.9004 1.42745V13.0272C11.9004 14.208 13.7025 14.2129 13.7025 13.0272V1.42745C13.7025 0.246657 11.9004 0.241818 11.9004 1.42745Z" fill="white"/>
<path d="M8.18604 4.60713V16.2069C8.18604 17.3877 9.98817 17.3925 9.98817 16.2069V4.60713C9.98817 3.42634 8.18604 3.42151 8.18604 4.60713Z" fill="white"/>
</svg>
