<svg width="48" height="48" viewBox="0 0 48 48" fill="none" xmlns="http://www.w3.org/2000/svg">
<rect width="48" height="48" rx="24" fill="#437EF7"/>
<path fill-rule="evenodd" clip-rule="evenodd" d="M24 9.33301C15.8998 9.33301 9.33334 15.8995 9.33334 23.9997C9.33334 32.0998 15.8998 38.6663 24 38.6663C32.1002 38.6663 38.6667 32.0998 38.6667 23.9997C38.6667 15.8995 32.1002 9.33301 24 9.33301ZM30.8409 17.1588C29.2953 15.6133 26.7896 15.6133 25.244 17.1588C24.7233 17.6795 24.7233 18.5237 25.244 19.0444C25.7647 19.5651 26.609 19.5651 27.1297 19.0444C27.6338 18.5403 28.4511 18.5403 28.9553 19.0444C29.4594 19.5486 29.4594 20.3659 28.9553 20.87L25.244 24.5812C24.951 24.8743 24.5533 24.9978 24.1674 24.949C23.4368 24.8566 22.7696 25.3739 22.6772 26.1044C22.5848 26.835 23.1021 27.5021 23.8327 27.5946C25.0011 27.7424 26.2291 27.3674 27.1297 26.4668L30.8409 22.7556C32.3864 21.2101 32.3864 18.7043 30.8409 17.1588ZM24.1674 20.4048C22.9989 20.2569 21.771 20.6319 20.8704 21.5325L17.1592 25.2437C15.6136 26.7892 15.6136 29.295 17.1592 30.8405C18.7047 32.3861 21.2105 32.3861 22.756 30.8405C23.2767 30.3198 23.2767 29.4756 22.756 28.9549C22.2353 28.4342 21.3911 28.4342 20.8704 28.9549C20.3662 29.459 19.5489 29.459 19.0448 28.9549C18.5406 28.4508 18.5406 27.6335 19.0448 27.1293L22.756 23.4181C23.049 23.1251 23.4467 23.0015 23.8327 23.0504C24.5632 23.1428 25.2304 22.6255 25.3228 21.8949C25.4152 21.1644 24.8979 20.4972 24.1674 20.4048Z" fill="white"/>
</svg>
