<svg width="24" height="24" viewBox="0 0 24 24" fill="none" xmlns="http://www.w3.org/2000/svg">
<g clip-path="url(#clip0_3_69267)">
<path d="M23.7628 12.2763C23.7628 11.4605 23.6967 10.6404 23.5556 9.83789H12.2368V14.4589H18.7185C18.4495 15.9492 17.5853 17.2676 16.3198 18.1054V21.1037H20.1868C22.4576 19.0137 23.7628 15.9272 23.7628 12.2763Z" fill="white"/>
<path d="M12.2373 24.0003C15.4737 24.0003 18.2031 22.9377 20.1917 21.1034L16.3247 18.1051C15.2488 18.837 13.8599 19.2515 12.2417 19.2515C9.11105 19.2515 6.45663 17.1394 5.50421 14.2998H1.51376V17.3907C3.55088 21.4429 7.70006 24.0003 12.2373 24.0003Z" fill="white"/>
<path d="M5.49974 14.3007C4.99707 12.8103 4.99707 11.1965 5.49974 9.70618V6.61523H1.5137C-0.188303 10.006 -0.188303 14.0009 1.5137 17.3916L5.49974 14.3007Z" fill="white"/>
<path d="M12.2373 4.74966C13.9481 4.7232 15.6016 5.36697 16.8407 6.54867L20.2667 3.12262C18.0973 1.0855 15.218 -0.034466 12.2373 0.000808666C7.7001 0.000808666 3.55092 2.55822 1.51381 6.61481L5.49985 9.70575C6.44785 6.86173 9.10668 4.74966 12.2373 4.74966Z" fill="white"/>
</g>
<defs>
<clipPath id="clip0_3_69267">
<rect width="24" height="24" fill="white"/>
</clipPath>
</defs>
</svg>
